<?xml version="1.0"?>
<svg version="1.1" xmlns="http://www.w3.org/2000/svg" width="290" height="70" style=""><path fill="#ff0000" d="M23.768,35.48l0,15.328c0,5.568-1.664,8.512-7.296,8.512c-1.024,0-2.432-0.224-2.432-0.224l0.416-3.296l1.536,0c1.92,0,2.816-1.056,2.816-3.072l0-17.248l-2.4-0.96l0-2.72l9.76-0.16l0,2.88z M46.24832,46.616l-10.624,0c0.192,2.56,1.664,4.064,3.872,4.064c2.656,0,5.376-1.504,5.376-1.504l1.376,2.656s-3.2,2.688-7.296,2.688c-5.504,0-8.32-3.2-8.32-8.64c0-5.6,3.168-9.28,8.544-9.28c4.768,0,7.264,2.944,7.264,7.52c0,1.216-0.192,2.4-0.192,2.496z M35.68832,43.64l5.792,0c0-1.824-0.768-3.2-2.624-3.2c-1.792,0-2.912,1.312-3.168,3.2z M57.62464,36.92l0.288,2.208s2.304-2.528,4.448-2.528c1.76,0,2.976,0.576,2.976,0.576l-0.256,6.144l-2.88,0l-0.48-2.72c-1.856,0-3.456,1.792-3.456,1.792l0,8.448l3.2,0.8l0,2.56l-10.56,0l0-2.56l2.56-0.8l0-10.4l-2.56-0.8l0-2.56z M70.82496,31.64c0-1.824,1.312-2.88,2.752-2.88c1.664,0,2.688,0.864,2.688,2.88c0,1.888-1.376,2.912-2.688,2.912c-1.728,0-2.752-1.024-2.752-2.912z M76.20096,50.84l2.24,0.8l0,2.56l-9.6,0l0-2.56l2.56-0.8l0-10.4l-2.56-0.8l0-2.56l7.36-0.16l0,13.92z M96.34528,48.984l1.6,2.816c-0.8,0.704-3.296,2.72-6.88,2.72c-5.28,0-8.32-3.264-8.32-8.704c0-5.696,3.2-9.216,8.8-9.216c2.752,0,5.6,1.12,5.6,1.12l-0.16,5.248l-2.88,0l-0.448-2.272s-0.928-0.256-2.208-0.256c-2.304,0-3.744,1.536-3.744,4.736c0,3.488,1.344,5.504,4,5.504c2.24,0,3.648-1.12,4.64-1.696z M108.6496,29.4l0,9.376c0.928-0.768,3.008-2.176,5.376-2.176c3.264,0,5.024,2.176,5.024,5.76l0,8.48l2.24,0.8l0,2.56l-8.704,0l0-2.56l1.664-0.768l0-7.744c0-1.6-0.64-2.56-2.112-2.56c-1.792,0-3.488,1.696-3.488,1.696l0,8.576l1.696,0.8l0,2.56l-9.056,0l0-2.56l2.56-0.8l0-17.984l-2.56-0.64l0-2.56z M134.07392,36.6c5.184,0,8.064,3.136,8.064,8.64c0,5.76-3.36,9.28-8.544,9.28c-5.216,0-8.16-2.72-8.16-8.8c0-5.76,3.424-9.12,8.64-9.12z M133.91392,40.44c-2.336,0-3.52,1.28-3.52,5.12c0,3.52,1.024,5.12,3.36,5.12c2.304,0,3.424-1.44,3.424-5.28c0-3.264-0.96-4.96-3.264-4.96z M156.34656,54.2l0-2.72l2.4-0.96l0-15.04l-2.4-0.96l0-2.72l7.36-0.16l3.04,0c4.896,0,7.776,2.56,7.776,6.72c0,5.376-3.296,8-9.12,8l-1.696,0l0,4.16l2.4,0.96l0,2.72l-9.76,0z M163.70656,42.616l1.696,0c2.656,0,4.16-1.248,4.16-3.616c0-2.08-1.12-3.52-3.296-3.52l-2.56,0l0,7.136z M185.41888,50.84l2.88,0.8l0,2.56l-10.272,0l0-2.56l2.56-0.8l0-17.984l-2.56-0.64l0-2.56l7.392-0.256l0,21.44z M202.7152,54.2l-0.576-2.08s-2.464,2.4-5.184,2.4c-3.104,0-4.992-1.824-4.992-5.024c0-3.776,2.848-5.28,7.712-5.28l2.24,0l0-1.76c0-1.632-0.864-2.336-2.464-2.336c-1.632,0-2.816,0.48-2.816,0.48l-0.48,2.016l-2.88,0l-0.224-4.736s3.872-1.28,6.944-1.28c4.864,0,6.72,1.696,6.72,6.336l0,7.904l2.4,0.576l0,2.56z M201.9152,46.936l-1.824,0c-2.496,0-3.488,0.64-3.488,2.08c0,1.216,0.672,1.92,1.888,1.92c1.696,0,3.424-1.856,3.424-1.856l0-2.144z M212.29952,39.64l0-2.56l8.544-0.16l0,2.72l-1.792,0.32l2.848,8.96l2.72-8.864l-1.856-0.416l0-2.56l8.608-0.16l0,2.72l-1.984,0.416l-4.704,13.12c-1.536,4.224-3.616,8.704-8.704,8.704c-1.088,0-3.104-0.256-3.104-0.256l0.448-3.424l2.08,0c2.56,0,3.744-2.72,4.288-3.968l-5.696-14.08z M250.33184,46.616l-10.624,0c0.192,2.56,1.664,4.064,3.872,4.064c2.656,0,5.376-1.504,5.376-1.504l1.376,2.656s-3.2,2.688-7.296,2.688c-5.504,0-8.32-3.2-8.32-8.64c0-5.6,3.168-9.28,8.544-9.28c4.768,0,7.264,2.944,7.264,7.52c0,1.216-0.192,2.4-0.192,2.496z M239.77184,43.64l5.792,0c0-1.824-0.768-3.2-2.624-3.2c-1.792,0-2.912,1.312-3.168,3.2z M261.70816,36.92l0.288,2.208s2.304-2.528,4.448-2.528c1.76,0,2.976,0.576,2.976,0.576l-0.256,6.144l-2.88,0l-0.48-2.72c-1.856,0-3.456,1.792-3.456,1.792l0,8.448l3.2,0.8l0,2.56l-10.56,0l0-2.56l2.56-0.8l0-10.4l-2.56-0.8l0-2.56z"/><path fill="#" d=""/></svg>
